<svg height="60" width="120" xmlns="http://www.w3.org/2000/svg" xmlns:xlink="http://www.w3.org/1999/xlink"><defs><path id="a" d="m79.564 38.728q-.812 0-1.518-.262-.68-.262-1.152-.707-.524-.497-.785-1.152-.262-.654-.262-1.597v-7.827h-2.33v-2.016h2.33v-3.77h2.225v3.77h3.246v2.016h-3.246v7.278q0 1.1.42 1.623.497.576 1.44.576.76 0 1.466-.445v2.173q-.393.183-.812.262-.393.08-1.02.08z"/><clipPath id="b"><path d="m959.4 500-279.6 279.7 279.6 279.7h-319.5l-279.7-279.7 279.7-279.7zm-319.5-479.3-519.3 519.3 159.8 159.8 679-679.1h-319.5z"/></clipPath><clipPath id="c"><path d="m959.4 500-279.6 279.7 279.6 279.7h-319.5l-279.7-279.7 279.7-279.7zm-319.5-479.3-519.3 519.3 159.8 159.8 679-679.1h-319.5z"/></clipPath><clipPath id="d"><path d="m959.4 500-279.6 279.7 279.6 279.7h-319.5l-279.7-279.7 279.7-279.7zm-319.5-479.3-519.3 519.3 159.8 159.8 679-679.1h-319.5z"/></clipPath><clipPath id="e"><path d="m959.4 500-279.6 279.7 279.6 279.7h-319.5l-279.7-279.7 279.7-279.7zm-319.5-479.3-519.3 519.3 159.8 159.8 679-679.1h-319.5z"/></clipPath><linearGradient id="f" gradientUnits="userSpaceOnUse" x1="566.635" x2="685.65" y1="970.339" y2="851.324"><stop offset="0" stop-color="#1a237e" stop-opacity=".4"/><stop offset="1" stop-color="#1a237e" stop-opacity="0"/></linearGradient><clipPath id="g"><path d="m959.4 500-279.6 279.7 279.6 279.7h-319.5l-279.7-279.7 279.7-279.7zm-319.5-479.3-519.3 519.3 159.8 159.8 679-679.1h-319.5z"/></clipPath><radialGradient id="h" cx="7824.659" cy="-2855.979" gradientTransform="matrix(.25 0 0 -.25 -1812 -622.5)" gradientUnits="userSpaceOnUse" r="5082.889"><stop offset="0" stop-color="#fff" stop-opacity=".1"/><stop offset="1" stop-color="#fff" stop-opacity="0"/></radialGradient></defs><g transform="matrix(.038819 0 0 .038819 -.560501 8.162276)"><g clip-path="url(#b)"><path d="m520 939.5 439.4-439.5h-319.5l-279.6 279.7z" fill="#39cefd"/></g><path clip-path="url(#c)" d="m120.6 540 519.3-519.3h319.5l-679 679.1z" fill="#39cefd"/><path clip-path="url(#d)" d="m639.9 1059.3h319.5l-279.6-279.6-159.8 159.8z" fill="#03569b"/><path clip-path="url(#e)" d="m679.8 779.7-159.8 159.8 237-82.1z" fill="url(#f)"/><g clip-path="url(#g)"><path d="m360.282 779.645 159.804-159.805 159.814 159.805-159.814 159.805z" fill="#16b9fd"/></g><path d="m959.4 500-279.6 279.7 279.6 279.7h-319.5l-279.7-279.7 279.7-279.7zm-319.5-479.3-519.3 519.3 159.8 159.8 679-679.1h-319.5z" fill="url(#h)"/></g><g fill="#808080"><path d="m40.62 19.774h10.84v2.12h-8.64v6.414h7.8v2.094h-7.8v8.115h-2.2zm13.463 0h2.225v18.744h-2.225zm10.365 19.163q-2.408 0-3.7-1.414-1.248-1.423-1.248-3.953v-8.403h2.225v8.063q0 1.9.864 2.8.864.9 2.33.9 1.126 0 2-.602.9-.602 1.36-1.57.497-.97.497-2.042v-7.54h2.224v13.35h-2.12v-1.946h-.105q-.55.995-1.754 1.675-1.204.68-2.566.68z"/><use xlink:href="#a"/><use x="9.436" xlink:href="#a"/><path d="m98.8 38.937q-1.9 0-3.43-.916-1.518-.916-2.382-2.513-.838-1.623-.838-3.64 0-1.937.785-3.56.812-1.623 2.278-2.592 1.466-.97 3.403-.97 1.963 0 3.403.9 1.44.864 2.2 2.408.785 1.545.785 3.534 0 .393-.08.68h-10.55q.08 1.518.733 2.566.654 1.047 1.65 1.57 1.02.524 2.12.524 2.566 0 3.953-2.408l1.885.916q-.864 1.623-2.356 2.566-1.466.942-3.56.942zm3.848-8.508q-.052-.838-.47-1.675-.42-.838-1.335-1.414-.9-.576-2.25-.576-1.57 0-2.67 1.02-1.073.995-1.414 2.644h8.142zm4.934-5.262h2.12v2.147h.105q.393-1.1 1.518-1.806 1.126-.733 2.356-.733.916 0 1.57.262v2.408q-.838-.42-1.885-.42-.97 0-1.78.55-.812.55-1.3 1.492-.47.916-.47 2v7.46h-2.225v-13.35z"/></g></svg>